{"accessors":[{"bufferView":0,"byteOffset":0,"componentType":5123,"count":81,"max":[13],"min":[0],"type":"SCALAR"},{"bufferView":1,"byteOffset":0,"componentType":5126,"count":14,"max":[0.10393700003623962,0.9993979930877686,0.12203200161457062],"min":[-0.08189839869737625,0.9925259947776794,-0.08623140305280685],"type":"VEC3"},{"bufferView":1,"byteOffset":168,"componentType":5126,"count":14,"max":[0.3098679780960083,0,0.20799200236797333],"min":[-0.3087570071220398,-0.009667149744927883,-0.2469169944524765],"type":"VEC3"},{"bufferView":0,"byteOffset":162,"componentType":5123,"count":324,"max":[215],"min":[0],"type":"SCALAR"},{"bufferView":1,"byteOffset":336,"componentType":5126,"count":216,"max":[1,1,0],"min":[0,-1,0],"type":"VEC3"},{"bufferView":1,"byteOffset":2928,"componentType":5126,"count":216,"max":[0.33451899886131287,0.11588499695062637,0.02499999850988388],"min":[-0.3088409900665283,-0.29766497015953064,-0.02499999850988388],"type":"VEC3"},{"bufferView":0,"byteOffset":810,"componentType":5123,"count":15861,"max":[4393],"min":[0],"type":"SCALAR"},{"bufferView":1,"byteOffset":5520,"componentType":5126,"count":4394,"max":[1,1,1],"min":[-1,-1,-1],"type":"VEC3"},{"bufferView":1,"byteOffset":58248,"componentType":5126,"count":4394,"max":[0.1130479946732521,0.24217697978019714,0.332196980714798],"min":[-0.1130479946732521,0.01415649987757206,-0.332196980714798],"type":"VEC3"},{"bufferView":0,"byteOffset":32532,"componentType":5123,"count":102,"max":[35],"min":[0],"type":"SCALAR"},{"bufferView":1,"byteOffset":110976,"componentType":5126,"count":36,"max":[0.00000330133002535149,0.2588219940662384,0.965927004814148],"min":[-0.0000027993298772344133,-0.2588199973106384,-0.965927004814148],"type":"VEC3"},{"bufferView":1,"byteOffset":111408,"componentType":5126,"count":36,"max":[0.07006209343671799,0.18119098246097565,0.11455699801445007],"min":[0.038549598306417465,0.15048499405384064,0.10432399809360504],"type":"VEC3"}],"asset":{"generator":"COLLADA2GLTF","version":"2.0"},"bufferViews":[{"buffer":0,"byteLength":32736,"byteOffset":0,"target":34963},{"buffer":0,"byteLength":111840,"byteOffset":32736,"byteStride":12,"target":34962}],"buffers":[{"name":"output","byteLength":144576,"uri":"data:application/octet-stream;base64,"}],"materials":[{"name":"effect-ID1","pbrMetallicRoughness":{"baseColorFactor":[1,1,1,1],"metallicFactor":0,"roughnessFactor":1},"emissiveFactor":[0,0,0],"alphaMode":"OPAQUE","doubleSided":false},{"name":"effect-ID1","pbrMetallicRoughness":{"baseColorFactor":[1,1,1,1],"metallicFactor":0,"roughnessFactor":1},"emissiveFactor":[0,0,0],"alphaMode":"OPAQUE","doubleSided":false},{"name":"effect-ID1","pbrMetallicRoughness":{"baseColorFactor":[1,1,1,1],"metallicFactor":0,"roughnessFactor":1},"emissiveFactor":[0,0,0],"alphaMode":"OPAQUE","doubleSided":false},{"name":"effect-ID1","pbrMetallicRoughness":{"baseColorFactor":[1,1,1,1],"metallicFactor":0,"roughnessFactor":1},"emissiveFactor":[0,0,0],"alphaMode":"OPAQUE","doubleSided":false}],"meshes":[{"name":"ID39","primitives":[{"attributes":{"NORMAL":1,"POSITION":2},"indices":0,"material":0,"mode":4}]},{"name":"ID30","primitives":[{"attributes":{"NORMAL":4,"POSITION":5},"indices":3,"material":1,"mode":4}]},{"name":"ID21","primitives":[{"attributes":{"NORMAL":7,"POSITION":8},"indices":6,"material":2,"mode":4},{"attributes":{"NORMAL":10,"POSITION":11},"indices":9,"material":3,"mode":4}]}],"nodes":[{"children":[1],"name":"Y_UP"},{"children":[4,3,2],"matrix":[1,0,0,0,0,1,0,0,0,0,1,0,0,0.01058189943432808,0,1],"name":"Truck"},{"matrix":[1,0,0,0,0,1,0,0,0,0,1,0,0.0010749399662017822,-0.0009147319942712784,-0.03303210064768791,1],"mesh":0,"name":"TrckGR"},{"matrix":[1,0,0,0,0,4.489664195972409e-11,1,0,0,-1,4.489664195972409e-11,0,0.008179999887943268,0.020035600289702415,0.06507410109043121,1],"mesh":1,"name":"Grass.14"},{"matrix":[4.489664195972409e-11,0,-1,0,0,1,0,0,1,0,4.489664195972409e-11,0,-0.00925493985414505,-0.019120898097753525,-0.03204209730029106,1],"mesh":2,"name":"Truck"}],"scene":0,"scenes":[{"nodes":[0]}]}
